<svg xmlns="http://www.w3.org/2000/svg" viewBox="0 0 500 600" role="img" aria-labelledby="title desc">
  <title id="title">Malachite Logo</title>
  <desc id="desc">A polished malachite stone with green bands and a gold rim.</desc>
  <defs>
    <filter id="malachite-waves" x="-20%" y="-20%" width="140%" height="140%" color-interpolation-filters="sRGB">
      <feTurbulence type="fractalNoise" baseFrequency="0.015 0.035" numOctaves="6" seed="15" result="noise" />
      <feColorMatrix type="matrix" values="1 0 0 0 0  0 1 0 0 0  0 0 1 0 0  0 0 0 3.5 -1" in="noise" result="enhancedNoise" />
      <feDisplacementMap in="SourceGraphic" in2="enhancedNoise" scale="55" xChannelSelector="R" yChannelSelector="G" />
    </filter>

    <radialGradient id="malachite-center1" cx="35%" cy="65%" r="12%" spreadMethod="reflect">
      <stop offset="0%" stop-color="#02170c" />
      <stop offset="12%" stop-color="#0a3d24" />
      <stop offset="25%" stop-color="#187a43" />
      <stop offset="38%" stop-color="#2bc26b" />
      <stop offset="50%" stop-color="#125c31" />
      <stop offset="65%" stop-color="#052414" />
      <stop offset="80%" stop-color="#34d176" />
      <stop offset="90%" stop-color="#187a43" />
      <stop offset="100%" stop-color="#02170c" />
    </radialGradient>

    <radialGradient id="malachite-center2" cx="75%" cy="35%" r="16%" spreadMethod="reflect">
      <stop offset="0%" stop-color="#0a3d24" />
      <stop offset="15%" stop-color="#187a43" />
      <stop offset="30%" stop-color="#34d176" />
      <stop offset="45%" stop-color="#125c31" />
      <stop offset="60%" stop-color="#02170c" />
      <stop offset="75%" stop-color="#2bc26b" />
      <stop offset="100%" stop-color="#0a3d24" />
    </radialGradient>

    <radialGradient id="malachite-center3" cx="50%" cy="10%" r="10%" spreadMethod="reflect">
      <stop offset="0%" stop-color="#34d176" />
      <stop offset="20%" stop-color="#187a43" />
      <stop offset="40%" stop-color="#0a3d24" />
      <stop offset="60%" stop-color="#02170c" />
      <stop offset="80%" stop-color="#125c31" />
      <stop offset="100%" stop-color="#2bc26b" />
    </radialGradient>

    <clipPath id="stone-clip">
      <path d="M 250,40 C 390,40 470,140 460,310 C 450,490 340,560 240,560 C 110,560 40,460 40,300 C 40,110 110,40 250,40 Z" />
    </clipPath>

    <linearGradient id="gloss" x1="0%" y1="0%" x2="100%" y2="100%">
      <stop offset="0%" stop-color="white" stop-opacity="0.5" />
      <stop offset="20%" stop-color="white" stop-opacity="0.1" />
      <stop offset="50%" stop-color="white" stop-opacity="0" />
      <stop offset="80%" stop-color="black" stop-opacity="0.5" />
      <stop offset="100%" stop-color="black" stop-opacity="0.9" />
    </linearGradient>

    <linearGradient id="gold" x1="0%" y1="0%" x2="100%" y2="100%">
      <stop offset="0%" stop-color="#BF953F" />
      <stop offset="25%" stop-color="#FCF6BA" />
      <stop offset="50%" stop-color="#B38728" />
      <stop offset="75%" stop-color="#FBF5B7" />
      <stop offset="100%" stop-color="#AA771C" />
    </linearGradient>

    <filter id="specular-blur" x="-50%" y="-50%" width="200%" height="200%">
      <feGaussianBlur stdDeviation="25" />
    </filter>
  </defs>

  <g clip-path="url(#stone-clip)">
    <g filter="url(#malachite-waves)">
      <rect x="-100" y="-100" width="700" height="800" fill="url(#malachite-center1)" />
      <circle cx="375" cy="210" r="400" fill="url(#malachite-center2)" style="mix-blend-mode: overlay;" opacity="0.85" />
      <circle cx="250" cy="60" r="300" fill="url(#malachite-center3)" style="mix-blend-mode: multiply;" opacity="0.6" />
    </g>

    <rect x="0" y="0" width="500" height="600" fill="url(#gloss)" style="mix-blend-mode: overlay;" />
    <rect x="0" y="0" width="500" height="600" fill="url(#gloss)" opacity="0.6" />
    <circle cx="300" cy="360" r="140" fill="white" opacity="0.35" filter="url(#specular-blur)" style="mix-blend-mode: screen;" />
  </g>

  <path d="M 250,40 C 390,40 470,140 460,310 C 450,490 340,560 240,560 C 110,560 40,460 40,300 C 40,110 110,40 250,40 Z" fill="none" stroke="url(#gold)" stroke-width="6" />
  <path d="M 250,40 C 390,40 470,140 460,310 C 450,490 340,560 240,560 C 110,560 40,460 40,300 C 40,110 110,40 250,40 Z" fill="none" stroke="black" stroke-width="3" opacity="0.3" transform="scale(0.98) translate(5, 6)" />
</svg>
