<svg xmlns="http://www.w3.org/2000/svg" width="1200" height="630" viewBox="0 0 1200 630" role="img" aria-labelledby="title desc">
  <title id="title">Malachite OG Hero</title>
  <desc id="desc">A polished malachite inspired Open Graph card, 1200 by 630.</desc>
  <defs>
    <linearGradient id="bg" x1="0" y1="0" x2="1" y2="1">
      <stop offset="0%" stop-color="#040b07"/>
      <stop offset="50%" stop-color="#0b2c1d"/>
      <stop offset="100%" stop-color="#04140d"/>
    </linearGradient>

    <radialGradient id="glow-left" cx="0.2" cy="0.35" r="0.6">
      <stop offset="0%" stop-color="#2bc26b" stop-opacity="0.4"/>
      <stop offset="100%" stop-color="#2bc26b" stop-opacity="0"/>
    </radialGradient>

    <radialGradient id="glow-right" cx="0.85" cy="0.7" r="0.7">
      <stop offset="0%" stop-color="#0f7e4b" stop-opacity="0.35"/>
      <stop offset="100%" stop-color="#0f7e4b" stop-opacity="0"/>
    </radialGradient>

    <filter id="grain" x="-20%" y="-20%" width="140%" height="140%">
      <feTurbulence type="fractalNoise" baseFrequency="0.9" numOctaves="1" seed="12" result="noise"/>
      <feColorMatrix in="noise" type="saturate" values="0"/>
      <feComponentTransfer>
        <feFuncA type="table" tableValues="0 0.03"/>
      </feComponentTransfer>
    </filter>

    <filter id="malachite-flow" x="-20%" y="-20%" width="140%" height="140%" color-interpolation-filters="sRGB">
      <feTurbulence type="fractalNoise" baseFrequency="0.012 0.028" numOctaves="5" seed="33" result="noise"/>
      <feColorMatrix in="noise" type="matrix" values="1 0 0 0 0  0 1 0 0 0  0 0 1 0 0  0 0 0 3.2 -1" result="contrast"/>
      <feDisplacementMap in="SourceGraphic" in2="contrast" scale="42" xChannelSelector="R" yChannelSelector="G"/>
    </filter>

    <radialGradient id="stone-a" cx="0.25" cy="0.7" r="0.55" spreadMethod="reflect">
      <stop offset="0%" stop-color="#02170c"/>
      <stop offset="16%" stop-color="#0a3d24"/>
      <stop offset="32%" stop-color="#187a43"/>
      <stop offset="48%" stop-color="#2bc26b"/>
      <stop offset="64%" stop-color="#125c31"/>
      <stop offset="80%" stop-color="#052414"/>
      <stop offset="100%" stop-color="#34d176"/>
    </radialGradient>

    <radialGradient id="stone-b" cx="0.72" cy="0.34" r="0.6" spreadMethod="reflect">
      <stop offset="0%" stop-color="#0a3d24"/>
      <stop offset="18%" stop-color="#1d8f52"/>
      <stop offset="36%" stop-color="#34d176"/>
      <stop offset="54%" stop-color="#0e4528"/>
      <stop offset="72%" stop-color="#02170c"/>
      <stop offset="100%" stop-color="#2bc26b"/>
    </radialGradient>

    <linearGradient id="gold" x1="0" y1="0" x2="1" y2="1">
      <stop offset="0%" stop-color="#BF953F"/>
      <stop offset="25%" stop-color="#FCF6BA"/>
      <stop offset="50%" stop-color="#B38728"/>
      <stop offset="75%" stop-color="#FBF5B7"/>
      <stop offset="100%" stop-color="#AA771C"/>
    </linearGradient>

    <clipPath id="stone-clip">
      <path d="M236 64c151 0 236 87 236 250 0 179-106 253-235 253C97 567 28 474 28 318 28 156 104 64 236 64z"/>
    </clipPath>

    <linearGradient id="sheen" x1="0" y1="0" x2="1" y2="1">
      <stop offset="0%" stop-color="#ffffff" stop-opacity="0.52"/>
      <stop offset="22%" stop-color="#ffffff" stop-opacity="0.08"/>
      <stop offset="56%" stop-color="#ffffff" stop-opacity="0"/>
      <stop offset="84%" stop-color="#000000" stop-opacity="0.55"/>
      <stop offset="100%" stop-color="#000000" stop-opacity="0.88"/>
    </linearGradient>

    <filter id="soft-blur" x="-50%" y="-50%" width="200%" height="200%">
      <feGaussianBlur stdDeviation="30"/>
    </filter>
  </defs>

  <rect width="1200" height="630" fill="url(#bg)"/>
  <rect width="1200" height="630" fill="url(#glow-left)"/>
  <rect width="1200" height="630" fill="url(#glow-right)"/>
  <rect width="1200" height="630" filter="url(#grain)"/>

  <g transform="translate(105 32)">
    <ellipse cx="244" cy="560" rx="225" ry="42" fill="#000" opacity="0.45" filter="url(#soft-blur)"/>

    <g clip-path="url(#stone-clip)">
      <g filter="url(#malachite-flow)">
        <rect x="-120" y="-120" width="760" height="860" fill="url(#stone-a)"/>
        <circle cx="418" cy="228" r="365" fill="url(#stone-b)" style="mix-blend-mode:overlay" opacity="0.9"/>
        <circle cx="178" cy="116" r="280" fill="url(#stone-a)" style="mix-blend-mode:multiply" opacity="0.65"/>
      </g>
      <rect x="0" y="0" width="500" height="630" fill="url(#sheen)" style="mix-blend-mode:overlay"/>
      <rect x="0" y="0" width="500" height="630" fill="url(#sheen)" opacity="0.55"/>
      <circle cx="322" cy="330" r="152" fill="#fff" opacity="0.34" filter="url(#soft-blur)" style="mix-blend-mode:screen"/>
    </g>

    <path d="M236 64c151 0 236 87 236 250 0 179-106 253-235 253C97 567 28 474 28 318 28 156 104 64 236 64z" fill="none" stroke="url(#gold)" stroke-width="8"/>
    <path d="M236 64c151 0 236 87 236 250 0 179-106 253-235 253C97 567 28 474 28 318 28 156 104 64 236 64z" fill="none" stroke="#000" stroke-width="3.5" opacity="0.34" transform="translate(6 7) scale(0.98)"/>
  </g>

  <g transform="translate(610 120)">
    <text x="0" y="140" fill="#4fe18d" font-size="78" font-family="'Trebuchet MS', 'Avenir Next', sans-serif" font-weight="700" letter-spacing="6" text-transform="uppercase">MALACHITE</text>
    <rect x="0" y="176" width="390" height="2" fill="#2bc26b" opacity="0.65"/>
    <text x="0" y="246" fill="#d2f5e1" font-size="32" font-family="'Trebuchet MS', 'Avenir Next', sans-serif" font-weight="500" letter-spacing="1">Gemstone-inspired</text>
    <text x="0" y="305" fill="#7fbf9b" font-size="24" font-family="'Trebuchet MS', 'Avenir Next', sans-serif" font-weight="400">Built with pure SVG</text>

    <g transform="translate(0 352)">
      <circle cx="8" cy="31" r="12" fill="#2bc26b"/>
      <text x="32" y="39" fill="#d6ffe8" font-size="20" font-family="'Trebuchet MS', 'Avenir Next', sans-serif" font-weight="600">https://malachite.orangely.xyz</text>
    </g>
  </g>
</svg>
